<svg aria-labelledby="uw-crest-svg" xmlns="http://www.w3.org/2000/svg" xmlns:xlink="http://www.w3.org/1999/xlink" viewBox="0 0 568.86 155" width="300" height="82"><title id="uw-crest-svg">W crest logo for the university</title><defs><style>.cls-12{fill:#c5050c;}.cls-1{fill:#c5050c;}.cls-2{fill:#282728;}.cls-200{fill:#282728;}.cls-30{fill:url(#Web_Shield_blend);}.cls-4{fill:#fff;}</style><radialGradient id="Web_Shield_blend" cx="541.73" cy="27.47" r="119.08" gradientTransform="translate(-227.81 62.54) scale(0.51 0.51)" gradientUnits="userSpaceOnUse"><stop offset="0.17" stop-color="#fff"></stop><stop offset="0.3" stop-color="#f6ede4"></stop><stop offset="0.69" stop-color="#debe9b"></stop><stop offset="0.87" stop-color="#d4ac7f"></stop></radialGradient></defs><path class="cls-1" d="M177.16,44.72c7,2.51,4,10,2.42,15.34l-10.13,34L157,53.83c-1.26-4.09-1.88-7.06-1.35-9.38H143v.27c4.93,2.61,3.14,8.65,1.43,14.32L134,94.35,120.62,51.14c-.54-1.77-1.44-4.65-1.08-6.69H106.46v.27c4.48,3.16,5.83,9.21,7.44,14.32l10.57,34.29c3,9.57,3.76,8.92,11.91,15l14-46.93,9.85,32c3,9.57,3.59,9.11,11.83,15L191,44.45h-13.8Z"></path><path class="cls-1" d="M194,44.72c4.57,1.77,3.94,8.56,3.94,12.83v35c0,4.18.53,11.06-3.94,12.74v.28h17v-.28c-4.48-1.77-3.94-8.56-3.94-12.74v-35c0-4.18-.54-11.06,3.94-12.83v-.27H194Z"></path><path class="cls-1" d="M226.71,58.11c0-6.41,6.46-8.46,11.56-8.46a20,20,0,0,1,14.07,5.85V45A43.65,43.65,0,0,0,239,43c-10.93,0-22.49,4.47-22.49,16.17,0,19.7,30.82,17.1,30.82,31.6,0,6.5-7.7,9.66-12.81,9.66a30.45,30.45,0,0,1-19.63-7.71l2.6,11.61a44.75,44.75,0,0,0,16,2.79c14,0,24-9.3,24-19.23C257.54,70.65,226.71,70.84,226.71,58.11Z"></path><path class="cls-1" d="M293.86,99.37c-13.8,0-22.76-12.18-22.76-25.83,0-13.48,8.6-22.87,21-22.87A30.39,30.39,0,0,1,308.65,56V45.29A68.75,68.75,0,0,0,292.34,43c-18.37,0-31.46,12.73-31.46,32,0,19.89,13.09,32.15,34.24,32.15a30.73,30.73,0,0,0,13.53-2.79l4.57-10.77h-.28C307.3,96.86,300.58,99.37,293.86,99.37Z"></path><path class="cls-1" d="M345.53,42.87c-18.81-.47-33.6,14.31-33.6,32,0,19.06,15,32.25,32.71,32.25s33-13.75,33-32.72A31.46,31.46,0,0,0,345.53,42.87Zm-.44,57.52C331,100.39,322.15,87,322.15,74c0-14,8.87-24.43,22.77-24.43,14.14,0,22.48,13.1,22.48,26.67C367.4,90.08,358.71,100.39,345.09,100.39Z"></path><path class="cls-1" d="M423.65,44.72c4.75,2.79,4.66,6.51,4.66,11.72V91.66l-32.8-42.93-1.26-1.86a5.82,5.82,0,0,1-1.34-2.33v-.09H379.83v.27c4.66,2.79,4.66,6.51,4.66,11.72V93.52c0,5.2,0,8.91-4.75,11.8v.28H395.6v-.28c-4.75-2.89-4.66-6.6-4.66-11.8v-36L421.68,98c3.94,5.3,6.72,8.37,13.08,10.6V56.44c0-5.21,0-8.93,4.66-11.72v-.27H423.65Z"></path><path class="cls-1" d="M452.53,58.11c0-6.41,6.45-8.46,11.56-8.46a20,20,0,0,1,14.07,5.85V45a43.67,43.67,0,0,0-13.36-2c-10.92,0-22.48,4.47-22.48,16.17,0,19.7,30.82,17.1,30.82,31.6,0,6.5-7.71,9.66-12.82,9.66a30.45,30.45,0,0,1-19.62-7.71l2.6,11.61a44.77,44.77,0,0,0,16.05,2.79c14,0,24-9.3,24-19.23C483.36,70.65,452.53,70.84,452.53,58.11Z"></path><path class="cls-1" d="M486.74,44.72c4.56,1.77,3.94,8.56,3.94,12.83v35c0,4.18.54,11.06-3.94,12.74v.28h17v-.28c-4.49-1.77-3.94-8.56-3.94-12.74v-35c0-4.18-.55-11.06,3.94-12.83v-.27h-17Z"></path><path class="cls-1" d="M552.09,44.45v.27c4.76,2.79,4.66,6.51,4.66,11.72V91.66L524,48.73l-1.26-1.86a6.19,6.19,0,0,1-1.34-2.33v-.09H508.27v.27c4.65,2.79,4.65,6.51,4.65,11.72V93.52c0,5.2,0,8.91-4.74,11.8v.28H524v-.28c-4.75-2.89-4.65-6.6-4.65-11.8v-36L550.12,98c3.94,5.3,6.73,8.37,13.08,10.6V56.44c0-5.21,0-8.93,4.66-11.72v-.27Z"></path><path class="cls-2" d="M135.38,119.49v10.8a6.43,6.43,0,0,1-.79,3.24,5.34,5.34,0,0,1-2.3,2.13,7.92,7.92,0,0,1-3.58.74,6.7,6.7,0,0,1-4.83-1.64,5.93,5.93,0,0,1-1.72-4.52V119.49h2.73v10.56a4.23,4.23,0,0,0,1,3,4,4,0,0,0,3,1q3.85,0,3.85-4.05V119.49Z"></path><path class="cls-2" d="M153.82,136.18h-3.34l-8.2-13.3h-.09l.05.75c.11,1.41.16,2.7.16,3.87v8.68h-2.47V119.49h3.31l8.18,13.23h.07c0-.18-.05-.81-.1-1.91s-.07-2-.07-2.58v-8.74h2.5Z"></path><path class="cls-2" d="M158.74,136.18V119.49h2.73v16.69Z"></path><path class="cls-2" d="M175.89,119.49h2.83l-5.84,16.69H170l-5.83-16.69H167l3.48,10.38c.18.49.38,1.13.58,1.91s.34,1.36.4,1.74c.1-.58.25-1.25.46-2s.37-1.32.5-1.69Z"></path><path class="cls-2" d="M190.87,136.18h-9.44V119.49h9.44v2.31h-6.71v4.54h6.29v2.28h-6.29v5.24h6.71Z"></path><path class="cls-2" d="M197.72,129.51v6.67H195V119.49h4.71a7.76,7.76,0,0,1,4.78,1.21,4.35,4.35,0,0,1,1.55,3.66,4.56,4.56,0,0,1-3.23,4.43l4.71,7.39H204.4l-4-6.67Zm0-2.26h1.89a4.33,4.33,0,0,0,2.76-.7,2.57,2.57,0,0,0,.86-2.1,2.26,2.26,0,0,0-.92-2,5.1,5.1,0,0,0-2.79-.62h-1.8Z"></path><path class="cls-2" d="M220.06,131.65a4.22,4.22,0,0,1-1.61,3.49A7,7,0,0,1,214,136.4a10.68,10.68,0,0,1-4.63-.87V133a12.14,12.14,0,0,0,2.42.84,10.14,10.14,0,0,0,2.4.31,3.77,3.77,0,0,0,2.38-.62,2,2,0,0,0,.77-1.65,2.1,2.1,0,0,0-.7-1.59,11,11,0,0,0-2.92-1.54,7.61,7.61,0,0,1-3.22-2.11,4.48,4.48,0,0,1-.94-2.85,4,4,0,0,1,1.49-3.29,6.19,6.19,0,0,1,4-1.19,11.72,11.72,0,0,1,4.77,1l-.87,2.22a10.5,10.5,0,0,0-4-.94,3.09,3.09,0,0,0-2,.58,1.9,1.9,0,0,0-.68,1.52,2.19,2.19,0,0,0,.27,1.12,2.89,2.89,0,0,0,.9.87,14.83,14.83,0,0,0,2.26,1.08,12.86,12.86,0,0,1,2.7,1.43,4.19,4.19,0,0,1,1.25,1.5A4.54,4.54,0,0,1,220.06,131.65Z"></path><path class="cls-2" d="M223.8,136.18V119.49h2.73v16.69Z"></path><path class="cls-2" d="M237.21,136.18h-2.73V121.83h-4.91v-2.34h12.54v2.34h-4.9Z"></path><path class="cls-2" d="M249.89,127.11l4-7.62h3l-5.56,10.22v6.47h-2.74V129.8L243,119.49h3Z"></path><path class="cls-2" d="M280.92,127.81a9.09,9.09,0,0,1-2,6.33,8.56,8.56,0,0,1-11.57,0,9.17,9.17,0,0,1-2-6.37,9.06,9.06,0,0,1,2-6.34,7.51,7.51,0,0,1,5.82-2.22,7.36,7.36,0,0,1,5.75,2.25A9.14,9.14,0,0,1,280.92,127.81Zm-12.74,0a7.48,7.48,0,0,0,1.25,4.68,5.05,5.05,0,0,0,7.35,0,9.45,9.45,0,0,0,0-9.34,4.32,4.32,0,0,0-3.65-1.59,4.44,4.44,0,0,0-3.71,1.59A7.43,7.43,0,0,0,268.18,127.81Z"></path><path class="cls-2" d="M287.72,136.18H285V119.49h9.41v2.31h-6.71V127H294v2.32h-6.28Z"></path><path class="cls-2" d="M319.94,136.18h-3l-2.83-10c-.12-.44-.27-1.06-.45-1.88a15.82,15.82,0,0,1-.33-1.7c-.08.48-.2,1.11-.37,1.89s-.32,1.35-.43,1.73l-2.76,9.91h-3l-2.16-8.35-2.19-8.34h2.79l2.38,9.73c.37,1.55.64,2.93.8,4.13.08-.65.21-1.37.38-2.17s.32-1.44.45-1.94l2.72-9.75h2.7l2.78,9.8a36.07,36.07,0,0,1,.85,4.06,31.17,31.17,0,0,1,.82-4.16l2.38-9.7h2.76Z"></path><path class="cls-2" d="M327.16,136.18V119.49h2.73v16.69Z"></path><path class="cls-2" d="M344.42,131.65a4.21,4.21,0,0,1-1.6,3.49,7,7,0,0,1-4.44,1.26,10.65,10.65,0,0,1-4.63-.87V133a11.92,11.92,0,0,0,2.42.84,10,10,0,0,0,2.39.31,3.8,3.8,0,0,0,2.39-.62,2,2,0,0,0,.77-1.65,2.07,2.07,0,0,0-.71-1.59,10.84,10.84,0,0,0-2.92-1.54,7.63,7.63,0,0,1-3.21-2.11,4.43,4.43,0,0,1-.94-2.85,4,4,0,0,1,1.48-3.29,6.22,6.22,0,0,1,4-1.19,11.67,11.67,0,0,1,4.76,1l-.86,2.22a10.5,10.5,0,0,0-4-.94,3.07,3.07,0,0,0-2,.58,1.87,1.87,0,0,0-.68,1.52,2.19,2.19,0,0,0,.27,1.12,2.79,2.79,0,0,0,.9.87,14.83,14.83,0,0,0,2.26,1.08,12.48,12.48,0,0,1,2.69,1.43,4.22,4.22,0,0,1,1.26,1.5A4.54,4.54,0,0,1,344.42,131.65Z"></path><path class="cls-2" d="M355.26,121.59a4.5,4.5,0,0,0-3.69,1.67,7.1,7.1,0,0,0-1.35,4.6,7.19,7.19,0,0,0,1.3,4.64,4.56,4.56,0,0,0,3.74,1.58,9.93,9.93,0,0,0,2.06-.21,20.46,20.46,0,0,0,2.06-.55v2.34a12.4,12.4,0,0,1-4.45.74,7.07,7.07,0,0,1-5.62-2.22,9.24,9.24,0,0,1-2-6.34,10.35,10.35,0,0,1,.95-4.56,6.82,6.82,0,0,1,2.75-3,8.4,8.4,0,0,1,4.24-1,10.42,10.42,0,0,1,4.72,1.07l-1,2.27a13.59,13.59,0,0,0-1.79-.7A6.41,6.41,0,0,0,355.26,121.59Z"></path><path class="cls-2" d="M378.3,127.81a9.09,9.09,0,0,1-2,6.33,7.34,7.34,0,0,1-5.76,2.26,7.41,7.41,0,0,1-5.81-2.24,9.22,9.22,0,0,1-2-6.37,9,9,0,0,1,2-6.34,7.49,7.49,0,0,1,5.81-2.22,7.36,7.36,0,0,1,5.75,2.25A9.14,9.14,0,0,1,378.3,127.81Zm-12.73,0a7.49,7.49,0,0,0,1.24,4.68,5.06,5.06,0,0,0,7.36,0,9.51,9.51,0,0,0,0-9.34,4.34,4.34,0,0,0-3.66-1.59,4.41,4.41,0,0,0-3.7,1.59A7.36,7.36,0,0,0,365.57,127.81Z"></path><path class="cls-2" d="M396.29,136.18H393l-8.2-13.3h-.09l0,.75c.11,1.41.16,2.7.16,3.87v8.68H382.4V119.49h3.31l8.18,13.23H394c0-.18,0-.81-.1-1.91s-.07-2-.07-2.58v-8.74h2.5Z"></path><path class="cls-2" d="M410.83,131.65a4.22,4.22,0,0,1-1.61,3.49,7,7,0,0,1-4.44,1.26,10.68,10.68,0,0,1-4.63-.87V133a12,12,0,0,0,2.43.84,10,10,0,0,0,2.39.31,3.82,3.82,0,0,0,2.39-.62,2,2,0,0,0,.76-1.65,2.1,2.1,0,0,0-.7-1.59,10.84,10.84,0,0,0-2.92-1.54,7.74,7.74,0,0,1-3.22-2.11,4.48,4.48,0,0,1-.93-2.85,4,4,0,0,1,1.48-3.29,6.21,6.21,0,0,1,4-1.19,11.68,11.68,0,0,1,4.77,1l-.87,2.22a10.5,10.5,0,0,0-4-.94,3.09,3.09,0,0,0-2,.58,1.9,1.9,0,0,0-.68,1.52,2.19,2.19,0,0,0,.27,1.12,3,3,0,0,0,.9.87,15.33,15.33,0,0,0,2.26,1.08,12.6,12.6,0,0,1,2.7,1.43,4.19,4.19,0,0,1,1.25,1.5A4.4,4.4,0,0,1,410.83,131.65Z"></path><path class="cls-2" d="M414.57,136.18V119.49h2.73v16.69Z"></path><path class="cls-2" d="M436.12,136.18h-3.35l-8.2-13.3h-.09l0,.75c.11,1.41.16,2.7.16,3.87v8.68h-2.47V119.49h3.31l8.18,13.23h.06c0-.18,0-.81-.09-1.91s-.06-2-.06-2.58v-8.74h2.5Z"></path><path class="cls-2" d="M439.77,131v-2.16h9.81V131Z"></path><path class="cls-2" d="M460.44,136.18l-4.84-13.93h-.09c.13,2.07.2,4,.2,5.81v8.12h-2.48V119.49h3.84l4.64,13.28h.07l4.76-13.28h3.86v16.69h-2.62v-8.25q0-1.25.06-3.24c0-1.34.08-2.14.11-2.42h-.1l-5,13.91Z"></path><path class="cls-2" d="M485.65,136.18,484,131.55h-6.38L476,136.18H473.1l6.24-16.75h3l6.24,16.75Zm-2.38-7-1.56-4.54c-.12-.3-.27-.78-.48-1.44s-.34-1.13-.41-1.43a27.89,27.89,0,0,1-.9,3.07l-1.51,4.34Z"></path><path class="cls-2" d="M504.84,127.68a8.29,8.29,0,0,1-2.3,6.31q-2.3,2.19-6.6,2.19h-4.67V119.49h5.16a8.52,8.52,0,0,1,6.19,2.15A8,8,0,0,1,504.84,127.68Zm-2.88.09q0-6-5.6-6H494v12.1h1.94Q502,133.88,502,127.77Z"></path><path class="cls-2" d="M508.93,136.18V119.49h2.73v16.69Z"></path><path class="cls-2" d="M526.19,131.65a4.21,4.21,0,0,1-1.6,3.49,7.06,7.06,0,0,1-4.44,1.26,10.65,10.65,0,0,1-4.63-.87V133a11.92,11.92,0,0,0,2.42.84,10.06,10.06,0,0,0,2.39.31,3.8,3.8,0,0,0,2.39-.62,2,2,0,0,0,.77-1.65,2.11,2.11,0,0,0-.71-1.59,10.84,10.84,0,0,0-2.92-1.54,7.63,7.63,0,0,1-3.21-2.11,4.43,4.43,0,0,1-.94-2.85,4,4,0,0,1,1.48-3.29,6.22,6.22,0,0,1,4-1.19,11.67,11.67,0,0,1,4.76,1l-.86,2.22a10.55,10.55,0,0,0-4-.94,3,3,0,0,0-2,.58,1.88,1.88,0,0,0-.69,1.52,2.09,2.09,0,0,0,.28,1.12,2.79,2.79,0,0,0,.9.87,14.83,14.83,0,0,0,2.26,1.08,12.48,12.48,0,0,1,2.69,1.43,4.09,4.09,0,0,1,1.25,1.5A4.4,4.4,0,0,1,526.19,131.65Z"></path><path class="cls-2" d="M544.75,127.81a9.09,9.09,0,0,1-2,6.33A7.34,7.34,0,0,1,537,136.4a7.43,7.43,0,0,1-5.81-2.24,9.22,9.22,0,0,1-2-6.37,9,9,0,0,1,2-6.34,7.47,7.47,0,0,1,5.81-2.22,7.34,7.34,0,0,1,5.75,2.25A9.14,9.14,0,0,1,544.75,127.81Zm-12.73,0a7.49,7.49,0,0,0,1.24,4.68,5.06,5.06,0,0,0,7.36,0,9.51,9.51,0,0,0,0-9.34,4.34,4.34,0,0,0-3.66-1.59,4.41,4.41,0,0,0-3.7,1.59A7.36,7.36,0,0,0,532,127.81Z"></path><path class="cls-2" d="M562.74,136.18H559.4l-8.2-13.3h-.09l0,.75c.11,1.41.16,2.7.16,3.87v8.68h-2.47V119.49h3.31l8.18,13.23h.06c0-.18,0-.81-.09-1.91s-.06-2-.06-2.58v-8.74h2.49Z"></path><path class="cls-30" d="M51.05,149.9a6.37,6.37,0,0,1-1.78-2l-.1-.15-.19,0C18.38,140.61,1.33,93.63,5.17,55.93A81,81,0,0,1,7.34,43.68a59.43,59.43,0,0,1,3.93-10.79,39.85,39.85,0,0,1,6.34-9.53c5.08-5.57,11.37-8.57,18.17-8.67.16,0,.6,0,.64-.42A9.25,9.25,0,0,1,43,9.83l.32-.05.08-.31c.06-.25,1.52-6,7.7-6s7.68,5.91,7.7,6l.07.32.32,0a9.31,9.31,0,0,1,6.54,4.46c0,.42.48.43.63.43,6.81.1,13.09,3.1,18.18,8.67a40.61,40.61,0,0,1,7.16,11.33l.4.93a71.94,71.94,0,0,1,4.87,20.31c3.84,37.7-13.21,84.68-43.81,91.81l-.18,0-.11.15A6.25,6.25,0,0,1,51.05,149.9Z"></path><path class="cls-200" d="M97.37,55.89a85.85,85.85,0,0,0-1.46-9.29,69,69,0,0,0-2.35-8.32A52.62,52.62,0,0,0,89.8,30a38.34,38.34,0,0,0-5-6.93c-5.14-5.63-11.48-8.73-18.51-8.83h-.16a9.71,9.71,0,0,0-7-4.91S57.65,3,51.05,3,43,9.3,43,9.3a9.73,9.73,0,0,0-7,4.91H35.8c-7,.1-13.37,3.2-18.51,8.83a38.34,38.34,0,0,0-5,6.93,52.57,52.57,0,0,0-3.75,8.31A69.07,69.07,0,0,0,6.19,46.6a83.42,83.42,0,0,0-1.45,9.29C.85,94.07,18,141,48.91,148.21c.47.71,1.55,2.17,2.14,2.17s1.67-1.46,2.14-2.17C84.08,141,101.26,94.07,97.37,55.89ZM51.05,4.48a6.59,6.59,0,0,1,6.63,4.65,8.22,8.22,0,0,0-6.51,4.17s-.07.16-.12.16-.1-.12-.12-.16a8.22,8.22,0,0,0-6.51-4.17A6.6,6.6,0,0,1,51.05,4.48Zm-3.14,7.23a5.94,5.94,0,0,1,2.69,3.56c.11.44.27.7.45.7s.34-.26.45-.7a6,6,0,0,1,2.69-3.56,7.08,7.08,0,0,1,10.2,2.68,21.54,21.54,0,0,0-2.82.71,10.86,10.86,0,0,0-4,2.23,15.83,15.83,0,0,0-5.14,10.29C51.3,40,65.46,38,66.17,38c1.83,0,3.22-2.88,3.22-6.7S68,24.56,66.17,24.56c-1.09,0-3,.88-3.17,4.3-.12,2.41,1,5.6,2.57,5.8.79.11,1.51-1.29,1.74-2.7.2-1.23.09-3.16-1-3.43a.65.65,0,0,0-.79.47c-.08.32.68.85.65,2.27,0,2.11-2.16,1.05-1.88-2.3.26-3,1.78-2.79,1.84-2.79.85,0,2.13,1.77,2.13,5.09,0,2.95-1.42,6.13-4.15,4.47-2.29-1.68-3.19-5.54-2.56-8.52.29-1.37,1.47-5.1,5.29-5.1,5.5,0,10.63,2.89,14.72,8.27-.45,1.44-3.29,6.92-12.3,12.17-.19.1-.48.27-.49.26a18.61,18.61,0,0,0-8.34-1.65,45.28,45.28,0,0,0-7.83,1.25,6.87,6.87,0,0,1-1.55.25h0a6.87,6.87,0,0,1-1.55-.25,45.13,45.13,0,0,0-7.83-1.25,18.54,18.54,0,0,0-8.33,1.65s-.3-.16-.5-.26c-9-5.25-11.85-10.73-12.3-12.17,4.1-5.38,9.22-8.27,14.73-8.27,3.81,0,5,3.73,5.28,5.1.63,3-.27,6.84-2.56,8.52-2.72,1.66-4.15-1.52-4.15-4.47,0-3.32,1.28-5.09,2.13-5.09.07,0,1.59-.19,1.84,2.79.29,3.35-1.84,4.41-1.88,2.3,0-1.42.73-1.95.65-2.27a.64.64,0,0,0-.78-.47c-1.1.27-1.2,2.2-1,3.43.22,1.41.94,2.81,1.73,2.7,1.52-.2,2.7-3.39,2.57-5.8-.17-3.42-2.07-4.3-3.17-4.3-1.79,0-3.21,2.89-3.21,6.71S34.1,38,35.93,38c.71.06,14.87,2,13.75-10.35a15.83,15.83,0,0,0-5.14-10.29,10.86,10.86,0,0,0-4-2.23,21.43,21.43,0,0,0-2.81-.71A7.07,7.07,0,0,1,47.91,11.71ZM21.13,63.48a53.82,53.82,0,0,0-.54,5.59A75,75,0,0,0,24,94.81a83.52,83.52,0,0,0,7,15.74c-2.9,2.62-7.23,3.66-8.69,4-7.82-15.56-11.8-35.64-10.92-53.73A27.32,27.32,0,0,0,21.13,63.48Zm-9.66-3.71c.74-12.35,3.87-22,8.42-28.49.81,2.1,4.34,7.34,12.48,12.12-6.92,4.17-10,12.77-11.1,19.19A26.65,26.65,0,0,1,11.47,59.77Zm20,51.58c5.19,9,10.34,14.29,14.26,17.11-1.42,3.61-4.79,6.44-6,7.35-6.77-4.55-12.5-11.77-17-20.48A20,20,0,0,0,31.49,111.35ZM46.54,129a20.72,20.72,0,0,0,4.51,2.48A20.93,20.93,0,0,0,55.57,129a20.2,20.2,0,0,0,6,7.33,31.51,31.51,0,0,1-6,3l0-.22c-.44-2.23-3.35-2.69-4.41-2.69s-4,.46-4.4,2.69c0,.07,0,.14,0,.22a31.81,31.81,0,0,1-6-3A20.31,20.31,0,0,0,46.54,129Zm9.81-.55c3.93-2.82,9.07-8.16,14.27-17.11a19.92,19.92,0,0,0,8.71,4c-4.51,8.71-10.24,15.93-17,20.48C61.14,134.9,57.77,132.07,56.35,128.46Zm14.73-17.91a84.12,84.12,0,0,0,7-15.74,74.35,74.35,0,0,0,2.8-12.37,73.89,73.89,0,0,0,.65-13.37A56.13,56.13,0,0,0,81,63.48a27.25,27.25,0,0,0,9.7-2.71c.89,18.09-3.09,38.17-10.92,53.73C78.3,114.21,74,113.17,71.08,110.55Zm9.75-48c-1-6.42-4.22-14.86-11.1-19.19,8.15-4.78,11.68-10,12.48-12.12,4.55,6.46,7.68,16.14,8.42,28.49A26.52,26.52,0,0,1,80.83,62.59ZM46,145.5a38.79,38.79,0,0,1-9.91-4.95,45.07,45.07,0,0,1-5.48-4.42,52.27,52.27,0,0,1-4-4.17c-.85-1-1.67-2-2.46-3.05a81.05,81.05,0,0,1-9.41-16.36A107.53,107.53,0,0,1,9,95.33,119.34,119.34,0,0,1,6,77a108.58,108.58,0,0,1-.12-18.3c.27-3.26.66-6.52,1.25-9.74a67.39,67.39,0,0,1,2.41-9.47,52.72,52.72,0,0,1,3.55-8.21,35.12,35.12,0,0,1,5.32-7.49,27.39,27.39,0,0,1,6.69-5.24,24.44,24.44,0,0,1,3.26-1.47c.57-.2,1.15-.39,1.74-.54a13.43,13.43,0,0,1,1.74-.44,24,24,0,0,1,4.32-.35,12.82,12.82,0,0,1,6.56,1.76,13.5,13.5,0,0,1,5.63,10.21c.67,7.63-7.11,8.83-8.63,8.82-.23,0-.35-.23.4-1a11,11,0,0,0,1.77-8.61c-.73-3.5-3.2-6.24-6.79-6.23-5.35,0-10.14,2.69-13.7,6.58a38.35,38.35,0,0,0-7.54,13.28,71.85,71.85,0,0,0-3.72,19.21,105.77,105.77,0,0,0,.39,18A114.34,114.34,0,0,0,13.8,95.63a103,103,0,0,0,5.95,16.64A73.25,73.25,0,0,0,29,127.51a43.56,43.56,0,0,0,13.73,11.6,30,30,0,0,0,3.73,1.62A11.5,11.5,0,0,0,47.59,146,10.5,10.5,0,0,1,46,145.5Zm5.56,2.61a1,1,0,0,1-.53.36,1,1,0,0,1-.53-.36c-1.32-1.66-3.29-4.88-2.55-8.73.21-1.08,2-1.57,3.08-1.58s2.87.5,3.08,1.58C54.87,143.23,52.9,146.45,51.58,148.11ZM96.13,77a118.15,118.15,0,0,1-3,18.31,107.53,107.53,0,0,1-5.78,17.22,80.12,80.12,0,0,1-9.41,16.36c-.79,1-1.61,2.06-2.46,3.05a52.15,52.15,0,0,1-4,4.17A45.86,45.86,0,0,1,66,140.55a39.12,39.12,0,0,1-9.91,4.95,10.3,10.3,0,0,1-1.58.47,11.24,11.24,0,0,0,1.12-5.24,29.39,29.39,0,0,0,3.73-1.62,43.71,43.71,0,0,0,13.74-11.6,73.64,73.64,0,0,0,9.25-15.24,102.11,102.11,0,0,0,6-16.64A116.71,116.71,0,0,0,91.6,77.75a104.75,104.75,0,0,0,.38-18,72.23,72.23,0,0,0-3.71-19.21,38.37,38.37,0,0,0-7.55-13.28c-3.56-3.89-8.34-6.57-13.7-6.58-3.58,0-6,2.73-6.79,6.23A11,11,0,0,0,62,35.55c.76.78.63,1,.4,1-1.52,0-9.29-1.19-8.63-8.82A13.5,13.5,0,0,1,59.4,17.53,12.82,12.82,0,0,1,66,15.77a24,24,0,0,1,4.32.35,14,14,0,0,1,1.75.44c.58.15,1.16.34,1.73.54A24.44,24.44,0,0,1,77,18.57a27.26,27.26,0,0,1,6.7,5.24A35.44,35.44,0,0,1,89,31.3a52.72,52.72,0,0,1,3.55,8.21A66,66,0,0,1,95,49c.59,3.22,1,6.48,1.25,9.74A109.64,109.64,0,0,1,96.13,77Z"></path><path class="cls-12" d="M79.83,69.31c-.19-4.54-1.51-18.4-10.94-24.41a16,16,0,0,0-7.41-2c-4.63-.3-8.06,1.47-10.37,1.54H51c-2.31-.07-5.77-1.84-10.4-1.54a15.82,15.82,0,0,0-7.37,2c-9.43,6-10.76,19.87-10.95,24.41a73.52,73.52,0,0,0,6,32.06c6.52,14.36,14.4,24.52,22.18,28l.62.28.63-.28c7.77-3.45,15.65-13.61,22.18-28A73.56,73.56,0,0,0,79.83,69.31Z"></path><path class="cls-4" d="M65.06,58.41v3.14l.63-.1H66a2,2,0,0,1,1.39.46,2.19,2.19,0,0,1,.36,1.88s-6.31,27.34-7.51,32.54c-1.38-6.58-8.88-42.51-8.88-42.51l0-.15H49.83l0,.16s-5.43,35-6.51,42c-1.42-6.06-7.47-32-7.47-32a3.86,3.86,0,0,1,0-.47,2.17,2.17,0,0,1,.52-1.61,1.62,1.62,0,0,1,1.21-.37l.63.08v-3H27.62v3l.47.07c.23,0,1.41.33,1.6,1.4,0,0,12.33,52.92,12.85,55.17l0,.15h1.85l0-.16c.06-.37,5.08-33.2,6-39.35L58.12,118l0,.16H59.8L72,62.82a1.64,1.64,0,0,1,1.71-1.27h.12l.61,0v-3.2Z"></path></svg>